<?xml version="1.0" encoding="utf-8"?>
<!-- Generator: Adobe Illustrator 22.1.0, SVG Export Plug-In . SVG Version: 6.00 Build 0)  -->
<svg version="1.1"
	 id="svg2169" inkscape:output_extension="org.inkscape.output.svg.inkscape" inkscape:version="0.45.1" sodipodi:docbase="/home/bene/Desktop" sodipodi:docname="dessin-1.svg" sodipodi:version="0.32" xmlns:cc="http://web.resource.org/cc/" xmlns:dc="http://purl.org/dc/elements/1.1/" xmlns:inkscape="http://www.inkscape.org/namespaces/inkscape" xmlns:rdf="http://www.w3.org/1999/02/22-rdf-syntax-ns#" xmlns:sodipodi="http://sodipodi.sourceforge.net/DTD/sodipodi-0.dtd" xmlns:svg="http://www.w3.org/2000/svg"
	 xmlns="http://www.w3.org/2000/svg" xmlns:xlink="http://www.w3.org/1999/xlink" x="0px" y="0px" viewBox="0 0 110.4 109.8"
	 style="enable-background:new 0 0 110.4 109.8;" xml:space="preserve">
<style type="text/css">
	.st0{fill:#323232;}
	.st1{fill:#646464;}
</style>
<sodipodi:namedview  bordercolor="#666666" borderopacity="1.0" height="184.25197px" id="base" inkscape:current-layer="layer1" inkscape:cx="-260.46312" inkscape:cy="316.02744" inkscape:document-units="px" inkscape:pageopacity="0.0" inkscape:pageshadow="2" inkscape:window-height="624" inkscape:window-width="872" inkscape:window-x="5" inkscape:window-y="48" inkscape:zoom="0.24748737" pagecolor="#ffffff" width="131.10236px">
	</sodipodi:namedview>
<g id="layer1" transform="translate(-473.36088,-251.72485)" inkscape:groupmode="layer" inkscape:label="Calque 1">
	<g id="g1894" transform="translate(428.42338,184.2561)">
		<path id="path8615" class="st0" d="M99.7,68.8c-27.3,0-25.6,11.8-25.6,11.8l0,12.3h26.1v3.7H63.7c0,0-17.5-2-17.5,25.6
			c0,27.6,15.3,26.6,15.3,26.6h9.1V136c0,0-0.5-15.3,15-15.3s25.8,0,25.8,0s14.5,0.2,14.5-14s0-23.6,0-23.6S128.2,68.8,99.7,68.8z
			 M85.3,77c2.6,0,4.7,2.1,4.7,4.7c0,2.6-2.1,4.7-4.7,4.7c-2.6,0-4.7-2.1-4.7-4.7C80.6,79.1,82.7,77,85.3,77z"/>
		<path id="path8620" class="st1" d="M100.4,175.8c27.3,0,25.6-11.8,25.6-11.8l0-12.3H100V148h36.4c0,0,17.5,2,17.5-25.6
			c0-27.6-15.3-26.6-15.3-26.6h-9.1v12.8c0,0,0.5,15.3-15,15.3s-25.8,0-25.8,0s-14.5-0.2-14.5,14c0,14.3,0,23.6,0,23.6
			S71.9,175.8,100.4,175.8z M114.8,167.6c-2.6,0-4.7-2.1-4.7-4.7c0-2.6,2.1-4.7,4.7-4.7c2.6,0,4.7,2.1,4.7,4.7
			C119.5,165.5,117.4,167.6,114.8,167.6z"/>
	</g>
</g>
</svg>
