<?xml version="1.0" encoding="utf-8"?>
<!-- Generator: Adobe Illustrator 22.1.0, SVG Export Plug-In . SVG Version: 6.00 Build 0)  -->
<svg version="1.1" id="Ebene_1" xmlns="http://www.w3.org/2000/svg" xmlns:xlink="http://www.w3.org/1999/xlink" x="0px" y="0px"
	 viewBox="0 0 724 561" style="enable-background:new 0 0 724 561;" xml:space="preserve">
<style type="text/css">
	.st0{fill:url(#SVGID_1_);}
	.st1{fill:url(#SVGID_2_);}
</style>
<linearGradient id="SVGID_1_" gradientUnits="userSpaceOnUse" x1="304.577" y1="294.8972" x2="305.577" y2="293.8972" gradientTransform="matrix(721.094 0 0 -482.937 -219627.7656 142419.7969)">
	<stop  offset="0" style="stop-color:#CBCED0"/>
	<stop  offset="1" style="stop-color:#84838B"/>
</linearGradient>
<path class="st0" d="M361.5,485.9C162.3,485.9,0.9,377.8,0.9,244.5C0.9,111.1,162.3,3,361.5,3C560.6,3,722,111.1,722,244.5
	C722,377.8,560.6,485.9,361.5,485.9z M416.6,97.4c-151.4,0-274,73.9-274,165.1s122.7,165.1,274,165.1c151.4,0,263-50.5,263-165.1
	C679.7,148,568,97.4,416.6,97.4z"/>
<linearGradient id="SVGID_2_" gradientUnits="userSpaceOnUse" x1="304.1708" y1="294.9385" x2="305.1707" y2="293.9386" gradientTransform="matrix(398 0 0 -406.124 -120787 119960.1016)">
	<stop  offset="0" style="stop-color:#276DC3"/>
	<stop  offset="1" style="stop-color:#165CAA"/>
</linearGradient>
<path class="st1" d="M550,377c0,0,21.8,6.6,34.5,13c4.4,2.2,12,6.7,17.5,12.5c5.4,5.7,8,11.5,8,11.5l86,145l-139,0.1L492,437
	c0,0-13.3-22.9-21.5-29.5c-6.8-5.5-9.7-7.5-16.5-7.5c-4.7,0-33,0-33,0l0,159L298,559V152.9h247c0,0,112.5,2,112.5,109.1
	S550,377,550,377z M496.5,241l-74.5,0l0,69.1l74.5,0c0,0,34.5-0.1,34.5-35.1C531,239.2,496.5,241,496.5,241z"/>
</svg>
